<svg xmlns="http://www.w3.org/2000/svg" viewBox="0 0 15.76 110"><title>Asset 7</title><g id="Layer_2" data-name="Layer 2"><g id="Layer_1-2" data-name="Layer 1"><path d="M7.49,87.07c-1.77-6.75-4.59-13.42-5.1-20.26C1,48.32.52,29.75,0,11.21-.08,8.3,1.15,5.11,2.55,2.46c1.71-3.24,5.14-3.29,7-.11,1.42,2.43,2.73,5.47,2.6,8.16C11.57,22.26,10.06,34,9.64,45.72s0,23.81.05,35.71c0,1.69,0,3.38,0,5.07Z"/><path d="M15.76,104.15c-3.33,2.75-5.16,5.47-7.34,5.79-3.86.56-5.67-3-5-6.09.5-2.24,3.16-5.28,5.15-5.52C10.32,98.11,12.47,101.32,15.76,104.15Z"/></g></g></svg>