<svg xmlns="http://www.w3.org/2000/svg" viewBox="0 0 21.53 150.32"><title>Asset 5</title><g id="Layer_2" data-name="Layer 2"><g id="Layer_1-2" data-name="Layer 1"><g id="Refresh"><path d="M10.23,119c-2.41-9.22-6.28-18.34-7-27.69C1.4,66,.71,40.66,0,15.32c-.11-4,1.57-8.33,3.48-12,2.34-4.43,7-4.5,9.55-.15C15,6.53,16.78,10.68,16.6,14.36c-.79,16.06-2.84,32.06-3.43,48.11-.59,16.24,0,32.53.07,48.8,0,2.31,0,4.62,0,6.92Z"/><path d="M21.53,142.33c-4.55,3.75-7.05,7.48-10,7.91-5.28.77-7.75-4.09-6.81-8.33.68-3.06,4.31-7.22,7-7.55C14.1,134.07,17,138.45,21.53,142.33Z"/></g></g></g></svg>